<svg width="70" height="325" viewBox="0 0 70 325" fill="none" xmlns="http://www.w3.org/2000/svg">
<line x1="33.5" y1="325" x2="33.5" stroke="white" stroke-width="3"/>
<rect y="19" width="70" height="70" rx="35" fill="white"/>
<path d="M27.5 67.25H42.5V43.8125C42.5 42.2598 41.2402 41 39.6875 41H30.3125C28.7598 41 27.5 42.2598 27.5 43.8125V67.25ZM31.25 44.75H38.75V46.625H31.25V44.75ZM50 49.4375V64.4375C50 65.9902 48.7402 67.25 47.1875 67.25H44.375V46.625H47.1875C48.7402 46.625 50 47.8848 50 49.4375ZM25.625 67.25H22.8125C21.2598 67.25 20 65.9902 20 64.4375V49.4375C20 47.8848 21.2598 46.625 22.8125 46.625H25.625V67.25Z" fill="black"/>
</svg>
