<svg width="70" height="325" viewBox="0 0 70 325" fill="none" xmlns="http://www.w3.org/2000/svg">
<line x1="34.5" y1="325" x2="34.5" stroke="white" stroke-width="3"/>
<rect y="19" width="70" height="70" rx="35" fill="white"/>
<path d="M55.137 47.0397L36.2506 41.2371C35.2214 40.921 34.111 40.921 33.0825 41.2371L14.1954 47.0397C12.6015 47.5292 12.6015 49.637 14.1954 50.1265L17.488 51.1381C16.7656 52.0311 16.3214 53.1206 16.2774 54.3136C15.6254 54.6873 15.1663 55.3617 15.1663 56.1667C15.1663 56.8966 15.5509 57.5107 16.1047 57.9034L14.3762 65.6817C14.2259 66.3581 14.7404 67 15.4331 67H19.2322C19.9255 67 20.4401 66.3581 20.2898 65.6817L18.5612 57.9034C19.115 57.5107 19.4996 56.8966 19.4996 56.1667C19.4996 55.3834 19.0615 54.7279 18.4393 54.3474C18.4908 53.3305 19.0108 52.4313 19.8402 51.8612L33.0818 55.9298C33.6953 56.118 34.872 56.3529 36.2499 55.9298L55.137 50.1272C56.7315 49.637 56.7315 47.5299 55.137 47.0397ZM36.8863 58.0009C34.9546 58.5941 33.3086 58.2664 32.4454 58.0009L22.6264 54.9846L21.6663 62.6667C21.6663 65.0602 27.4864 67 34.6662 67C41.8459 67 47.6661 65.0602 47.6661 62.6667L46.706 54.9839L36.8863 58.0009Z" fill="black"/>
</svg>
